<svg xmlns="http://www.w3.org/2000/svg" xmlns:xlink="http://www.w3.org/1999/xlink" width="172.566" height="39.556" viewBox="0 0 172.566 39.556">
  <defs>
    <linearGradient id="linear-gradient" y1="0.5" x2="5.714" y2="0.5" gradientUnits="objectBoundingBox">
      <stop offset="0" stop-color="#8e479a"/>
      <stop offset="1" stop-color="#92d5e0"/>
    </linearGradient>
    <linearGradient id="linear-gradient-2" x1="-1.455" y1="0.5" x2="5.781" y2="0.5" xlink:href="#linear-gradient"/>
    <linearGradient id="linear-gradient-3" x1="-2.797" y1="0.5" x2="4.965" y2="0.5" xlink:href="#linear-gradient"/>
    <linearGradient id="linear-gradient-4" x1="-2.919" y1="0.5" x2="2.795" y2="0.5" xlink:href="#linear-gradient"/>
    <linearGradient id="linear-gradient-5" x1="-5.151" y1="0.5" x2="2.084" y2="0.5" xlink:href="#linear-gradient"/>
    <linearGradient id="linear-gradient-6" x1="-6.762" y1="0.5" x2="1" y2="0.5" xlink:href="#linear-gradient"/>
  </defs>
  <g id="Group_8" data-name="Group 8" transform="translate(-366.028 -546.393)">
    <path id="Path_12" data-name="Path 12" d="M366.028,569.837v-7.275c0-9.587,4.967-16.055,14.841-16.055,10.567.059,15.36,5.6,15.36,16.055v7.275c0,10.163-4.793,16-15.072,16C369.839,585.718,366.028,579.713,366.028,569.837Zm27.43,0v-7.275c0-9.067-3.581-13.224-12.705-13.282-8.258,0-11.953,5.2-11.953,13.282v7.275c0,8.316,2.656,13.223,12.357,13.223C389.935,583.06,393.458,578.441,393.458,569.837Z" fill="url(#linear-gradient)"/>
    <path id="Path_13" data-name="Path 13" d="M423.189,583.177a1.388,1.388,0,0,1,.981,2.368,1.4,1.4,0,0,1-1.04.4h-1.847a1.381,1.381,0,0,1-1.386-1.386l.059-21.943a1.267,1.267,0,0,0-.059-.521c-.058-.056-.058-.115-.116-.173h-.519c-.059.058-.116.117-.173.173a1.267,1.267,0,0,0-.059.521V580a6.07,6.07,0,0,1-1.616,4.273,5.787,5.787,0,0,1-4.216,1.676h-6.641a5.916,5.916,0,0,1-5.832-5.89V560.771a1.387,1.387,0,0,1,2.367-.981,1.392,1.392,0,0,1,.4,1.04v19.229c0,2.078,1.039,3.118,3.06,3.118H413.2a3.064,3.064,0,0,0,2.252-.809,3.256,3.256,0,0,0,.809-2.368V562.62a3.27,3.27,0,0,1,1.039-2.484,3.021,3.021,0,0,1,2.2-.924h.115a3.048,3.048,0,0,1,2.136.982,3.307,3.307,0,0,1,.982,2.426l-.056,20.557Z" fill="url(#linear-gradient-2)"/>
    <path id="Path_14" data-name="Path 14" d="M445.355,585.949a10.006,10.006,0,0,1-10.51-10.51V564.93h-3.174a3.215,3.215,0,1,1,0-6.41h3.174v-8.663a3.548,3.548,0,0,1,.867-2.6,2.969,2.969,0,0,1,1.847-.809l.636-.058a3.136,3.136,0,0,1,1.791.577,3.507,3.507,0,0,1,1.269,2.887v8.663h4.158a1.386,1.386,0,1,1-.058,2.77h-5.486a1.4,1.4,0,0,1-1.384-1.386V549.857c0-.636-.117-.636-.117-.636a1.447,1.447,0,0,0-.4-.056l-.288.056v-.056a2.568,2.568,0,0,0-.058.692V559.9a1.4,1.4,0,0,1-1.386,1.386h-4.561c-.636,0-.694.173-.694.348v.173c0,.173.058.346.694.346h4.561a1.407,1.407,0,0,1,1.386,1.387v11.9a7.976,7.976,0,0,0,2.078,5.66,7.731,7.731,0,0,0,5.659,2.078h3.7a1.386,1.386,0,1,1,0,2.772Z" fill="url(#linear-gradient-3)"/>
    <path id="Path_15" data-name="Path 15" d="M454.185,569.837v-7.275c0-9.587,4.965-16.055,14.839-16.055,10.569.059,15.361,5.6,15.361,16.055v7.275c0,10.163-4.792,16-15.071,16C458,585.718,454.185,579.713,454.185,569.837Zm27.429,0v-7.275c0-9.067-3.581-13.224-12.7-13.282-8.259,0-11.954,5.2-11.954,13.282v7.275c0,8.316,2.657,13.223,12.358,13.223C478.092,583.06,481.614,578.441,481.614,569.837Z" fill="url(#linear-gradient-4)"/>
    <path id="Path_16" data-name="Path 16" d="M511.344,583.177a1.388,1.388,0,0,1,.981,2.368,1.387,1.387,0,0,1-1.038.4h-1.849a1.381,1.381,0,0,1-1.386-1.386l.059-21.943a1.267,1.267,0,0,0-.059-.521c-.056-.056-.056-.115-.115-.173h-.519l-.173.173a1.287,1.287,0,0,0-.058.521V580a6.066,6.066,0,0,1-1.617,4.273,5.785,5.785,0,0,1-4.215,1.676h-6.641a5.916,5.916,0,0,1-5.833-5.89V560.771a1.388,1.388,0,0,1,2.368-.981,1.4,1.4,0,0,1,.4,1.04v19.229c0,2.078,1.038,3.118,3.06,3.118h6.641a3.059,3.059,0,0,0,2.251-.809,3.252,3.252,0,0,0,.809-2.368V562.62a3.267,3.267,0,0,1,1.04-2.484,3.018,3.018,0,0,1,2.193-.924h.116a3.056,3.056,0,0,1,2.137.982,3.308,3.308,0,0,1,.982,2.426l-.059,20.557Z" fill="url(#linear-gradient-5)"/>
    <path id="Path_17" data-name="Path 17" d="M533.512,585.949A10.006,10.006,0,0,1,523,575.439V564.93h-3.176a3.215,3.215,0,1,1,0-6.41H523v-8.663a3.555,3.555,0,0,1,.865-2.6,2.969,2.969,0,0,1,1.849-.809l.636-.058a3.13,3.13,0,0,1,1.789.577,3.508,3.508,0,0,1,1.271,2.887v8.663h4.156a1.386,1.386,0,1,1-.056,2.77h-5.486a1.4,1.4,0,0,1-1.386-1.386V549.857c0-.636-.115-.636-.115-.636a1.447,1.447,0,0,0-.4-.056l-.29.056v-.056a2.656,2.656,0,0,0-.056.692V559.9a1.4,1.4,0,0,1-1.387,1.386h-4.562c-.636,0-.692.173-.692.348v.173c0,.173.056.346.692.346h4.562a1.407,1.407,0,0,1,1.387,1.387v11.9a7.967,7.967,0,0,0,2.078,5.66,7.724,7.724,0,0,0,5.659,2.078h3.7a1.386,1.386,0,0,1,0,2.772Z" fill="url(#linear-gradient-6)"/>
  </g>
</svg>
