<svg xmlns="http://www.w3.org/2000/svg" xmlns:xlink="http://www.w3.org/1999/xlink" width="69.567" height="69.567" viewBox="0 0 69.567 69.567">
  <defs>
    <linearGradient id="linear-gradient" y1="0.5" x2="1" y2="0.5" gradientUnits="objectBoundingBox">
      <stop offset="0.006" stop-color="#73d0f5"/>
      <stop offset="1" stop-color="#ba59a1"/>
    </linearGradient>
  </defs>
  <g id="Group_41" data-name="Group 41" transform="translate(-428.205 -102.164)">
    <g id="Group_39" data-name="Group 39">
      <path id="Path_32" data-name="Path 32" d="M462.989,171.731a34.784,34.784,0,1,1,34.783-34.783A34.823,34.823,0,0,1,462.989,171.731Zm0-63.474a28.69,28.69,0,1,0,28.69,28.691A28.723,28.723,0,0,0,462.989,108.257Z" fill="url(#linear-gradient)"/>
    </g>
    <g id="Group_40" data-name="Group 40">
      <path id="Path_33" data-name="Path 33" d="M462.989,157.06A20.112,20.112,0,1,1,483.1,136.948,20.135,20.135,0,0,1,462.989,157.06Zm0-35.655a15.543,15.543,0,1,0,15.542,15.543A15.561,15.561,0,0,0,462.989,121.4Z" fill="url(#linear-gradient)"/>
    </g>
  </g>
</svg>
